<?xml version="1.0" encoding="UTF-8" standalone="no"?>
<!DOCTYPE svg PUBLIC "-//W3C//DTD SVG 1.1//EN"
 "http://www.w3.org/Graphics/SVG/1.1/DTD/svg11.dtd">
<!-- Generated by graphviz version 2.44.1 (20211215.2258)
 -->
<!-- Title: G Pages: 1 -->
<svg width="396pt" height="284pt"
 viewBox="0.00 0.00 396.00 284.00" xmlns="http://www.w3.org/2000/svg" xmlns:xlink="http://www.w3.org/1999/xlink">
<g id="graph0" class="graph" transform="scale(1 1) rotate(0) translate(4 280)">
<title>G</title>
<polygon fill="white" stroke="transparent" points="-4,4 -4,-280 392,-280 392,4 -4,4"/>
<!-- stash -->
<g id="node1" class="node">
<title>stash</title>
<defs>
<linearGradient id="l_0" gradientUnits="userSpaceOnUse" x1="154" y1="-240" x2="154" y2="-276" >
<stop offset="0" style="stop-color:#c0c0c0;stop-opacity:1.;"/>
<stop offset="1" style="stop-color:#ffffff;stop-opacity:1.;"/>
</linearGradient>
</defs>
<polygon fill="url(#l_0)" stroke="black" points="181,-276 127,-276 127,-240 181,-240 181,-276"/>
<text text-anchor="middle" x="154" y="-255.5" font-family="Times New Roman,serif" font-size="10.00">stash</text>
</g>
<!-- B -->
<g id="node2" class="node">
<title>B</title>
<defs>
<linearGradient id="l_1" gradientUnits="userSpaceOnUse" x1="154" y1="-160" x2="154" y2="-196" >
<stop offset="0" style="stop-color:#c0c0c0;stop-opacity:1.;"/>
<stop offset="1" style="stop-color:#ffffff;stop-opacity:1.;"/>
</linearGradient>
</defs>
<polygon fill="url(#l_1)" stroke="black" points="181,-196 127,-196 127,-160 181,-160 181,-196"/>
<text text-anchor="middle" x="154" y="-175.5" font-family="Times New Roman,serif" font-size="10.00">B</text>
</g>
<!-- stash&#45;&gt;B -->
<g id="edge1" class="edge">
<title>stash&#45;&gt;B</title>
<path fill="none" stroke="black" d="M154,-229.85C154,-229.85 154,-206.08 154,-206.08"/>
<polygon fill="black" stroke="black" points="157.5,-206.08 154,-196.08 150.5,-206.08 157.5,-206.08"/>
<polygon fill="black" stroke="black" points="150.5,-229.85 154,-239.85 157.5,-229.85 150.5,-229.85"/>
<text text-anchor="middle" x="123" y="-209.96" font-family="Times New Roman,serif" font-size="10.00">stash/stash pop</text>
</g>
<!-- C -->
<g id="node4" class="node">
<title>C</title>
<defs>
<linearGradient id="l_2" gradientUnits="userSpaceOnUse" x1="361" y1="-160" x2="361" y2="-196" >
<stop offset="0" style="stop-color:#c0c0c0;stop-opacity:1.;"/>
<stop offset="1" style="stop-color:#ffffff;stop-opacity:1.;"/>
</linearGradient>
</defs>
<polygon fill="url(#l_2)" stroke="black" points="388,-196 334,-196 334,-160 388,-160 388,-196"/>
<text text-anchor="middle" x="361" y="-175.5" font-family="Times New Roman,serif" font-size="10.00">C</text>
</g>
<!-- B&#45;&gt;C -->
<g id="edge4" class="edge">
<title>B&#45;&gt;C</title>
<path fill="none" stroke="black" d="M191.06,-178C191.06,-178 333.93,-178 333.93,-178"/>
<polygon fill="black" stroke="black" points="191.06,-174.5 181.06,-178 191.06,-181.5 191.06,-174.5"/>
<text text-anchor="middle" x="257.5" y="-181" font-family="Times New Roman,serif" font-size="10.00">reset &#45;&#45;hard HEAD^</text>
</g>
<!-- work -->
<g id="node6" class="node">
<title>work</title>
<defs>
<linearGradient id="l_3" gradientUnits="userSpaceOnUse" x1="154" y1="-80" x2="154" y2="-116" >
<stop offset="0" style="stop-color:#c0c0c0;stop-opacity:1.;"/>
<stop offset="1" style="stop-color:#ffffff;stop-opacity:1.;"/>
</linearGradient>
</defs>
<polygon fill="url(#l_3)" stroke="black" points="181,-116 127,-116 127,-80 181,-80 181,-116"/>
<text text-anchor="middle" x="154" y="-95.5" font-family="Times New Roman,serif" font-size="10.00">work</text>
</g>
<!-- B&#45;&gt;work -->
<g id="edge5" class="edge">
<title>B&#45;&gt;work</title>
<path fill="none" stroke="black" d="M154,-149.85C154,-149.85 154,-126.08 154,-126.08"/>
<polygon fill="black" stroke="black" points="157.5,-126.08 154,-116.08 150.5,-126.08 157.5,-126.08"/>
<polygon fill="black" stroke="black" points="150.5,-149.85 154,-159.85 157.5,-149.85 150.5,-149.85"/>
<text text-anchor="middle" x="113.5" y="-129.96" font-family="Times New Roman,serif" font-size="10.00">MODIFY/checkout</text>
</g>
<!-- remote -->
<g id="node3" class="node">
<title>remote</title>
<defs>
<linearGradient id="l_4" gradientUnits="userSpaceOnUse" x1="361" y1="-240" x2="361" y2="-276" >
<stop offset="0" style="stop-color:#c0c0c0;stop-opacity:1.;"/>
<stop offset="1" style="stop-color:#ffffff;stop-opacity:1.;"/>
</linearGradient>
</defs>
<polygon fill="url(#l_4)" stroke="black" points="388,-276 334,-276 334,-240 388,-240 388,-276"/>
<text text-anchor="middle" x="361" y="-255.5" font-family="Times New Roman,serif" font-size="10.00">remote</text>
</g>
<!-- remote&#45;&gt;C -->
<g id="edge2" class="edge">
<title>remote&#45;&gt;C</title>
<path fill="none" stroke="black" d="M361,-229.85C361,-229.85 361,-206.08 361,-206.08"/>
<polygon fill="black" stroke="black" points="364.5,-206.08 361,-196.08 357.5,-206.08 364.5,-206.08"/>
<polygon fill="black" stroke="black" points="357.5,-229.85 361,-239.85 364.5,-229.85 357.5,-229.85"/>
<text text-anchor="middle" x="341" y="-209.96" font-family="Times New Roman,serif" font-size="10.00">push/pull</text>
</g>
<!-- C&#45;&gt;work -->
<g id="edge7" class="edge">
<title>C&#45;&gt;work</title>
<path fill="none" stroke="black" d="M352,-159.85C352,-136.24 352,-98 352,-98 352,-98 191.12,-98 191.12,-98"/>
<polygon fill="black" stroke="black" points="191.12,-94.5 181.12,-98 191.12,-101.5 191.12,-94.5"/>
<text text-anchor="middle" x="255.48" y="-90" font-family="Times New Roman,serif" font-size="10.00">reset [&#45;&#45;mixed] HEAD^</text>
</g>
<!-- index -->
<g id="node7" class="node">
<title>index</title>
<defs>
<linearGradient id="l_5" gradientUnits="userSpaceOnUse" x1="154" y1="0" x2="154" y2="-36" >
<stop offset="0" style="stop-color:#c0c0c0;stop-opacity:1.;"/>
<stop offset="1" style="stop-color:#ffffff;stop-opacity:1.;"/>
</linearGradient>
</defs>
<polygon fill="url(#l_5)" stroke="black" points="181,-36 127,-36 127,0 181,0 181,-36"/>
<text text-anchor="middle" x="154" y="-15.5" font-family="Times New Roman,serif" font-size="10.00">index</text>
</g>
<!-- C&#45;&gt;index -->
<g id="edge8" class="edge">
<title>C&#45;&gt;index</title>
<path fill="none" stroke="black" d="M370,-149.96C370,-149.96 370,-18 370,-18 370,-18 191.36,-18 191.36,-18"/>
<polygon fill="black" stroke="black" points="366.5,-149.96 370,-159.96 373.5,-149.96 366.5,-149.96"/>
<polygon fill="black" stroke="black" points="191.36,-14.5 181.36,-18 191.36,-21.5 191.36,-14.5"/>
<text text-anchor="middle" x="290.66" y="-10" font-family="Times New Roman,serif" font-size="10.00">commit/reset &#45;&#45;soft HEAD^</text>
</g>
<!-- A -->
<g id="node5" class="node">
<title>A</title>
<defs>
<linearGradient id="l_6" gradientUnits="userSpaceOnUse" x1="27" y1="-160" x2="27" y2="-196" >
<stop offset="0" style="stop-color:#c0c0c0;stop-opacity:1.;"/>
<stop offset="1" style="stop-color:#ffffff;stop-opacity:1.;"/>
</linearGradient>
</defs>
<polygon fill="url(#l_6)" stroke="black" points="54,-196 0,-196 0,-160 54,-160 54,-196"/>
<text text-anchor="middle" x="27" y="-175.5" font-family="Times New Roman,serif" font-size="10.00">A</text>
</g>
<!-- A&#45;&gt;B -->
<g id="edge3" class="edge">
<title>A&#45;&gt;B</title>
<path fill="none" stroke="black" d="M54.24,-178C54.24,-178 116.8,-178 116.8,-178"/>
<polygon fill="black" stroke="black" points="116.8,-181.5 126.8,-178 116.8,-174.5 116.8,-181.5"/>
</g>
<!-- work&#45;&gt;index -->
<g id="edge6" class="edge">
<title>work&#45;&gt;index</title>
<path fill="none" stroke="black" d="M154,-69.85C154,-69.85 154,-46.08 154,-46.08"/>
<polygon fill="black" stroke="black" points="157.5,-46.08 154,-36.08 150.5,-46.08 157.5,-46.08"/>
<polygon fill="black" stroke="black" points="150.5,-69.85 154,-79.85 157.5,-69.85 150.5,-69.85"/>
<text text-anchor="middle" x="135.5" y="-49.96" font-family="Times New Roman,serif" font-size="10.00">add/reset</text>
</g>
</g>
</svg>
