<?xml version="1.0" encoding="UTF-8" standalone="no"?>
<!DOCTYPE svg PUBLIC "-//W3C//DTD SVG 1.1//EN"
 "http://www.w3.org/Graphics/SVG/1.1/DTD/svg11.dtd">
<!-- Generated by graphviz version 2.40.1 (20161225.0304)
 -->
<!-- Title: G Pages: 1 -->
<svg width="412pt" height="284pt"
 viewBox="0.00 0.00 412.00 284.00" xmlns="http://www.w3.org/2000/svg" xmlns:xlink="http://www.w3.org/1999/xlink">
<g id="graph0" class="graph" transform="scale(1 1) rotate(0) translate(4 280)">
<title>G</title>
<polygon fill="#ffffff" stroke="transparent" points="-4,4 -4,-280 408,-280 408,4 -4,4"/>
<!-- stash -->
<g id="node1" class="node">
<title>stash</title>
<defs>
<linearGradient id="l_0" gradientUnits="userSpaceOnUse" x1="154" y1="-240" x2="154" y2="-276" >
<stop offset="0" style="stop-color:#c0c0c0;stop-opacity:1.;"/>
<stop offset="1" style="stop-color:#ffffff;stop-opacity:1.;"/>
</linearGradient>
</defs>
<polygon fill="url(#l_0)" stroke="#000000" points="181,-276 127,-276 127,-240 181,-240 181,-276"/>
<text text-anchor="middle" x="154" y="-255.5" font-family="Times-Roman" font-size="10.00" fill="#000000">stash</text>
</g>
<!-- B -->
<g id="node2" class="node">
<title>B</title>
<defs>
<linearGradient id="l_1" gradientUnits="userSpaceOnUse" x1="154" y1="-160" x2="154" y2="-196" >
<stop offset="0" style="stop-color:#c0c0c0;stop-opacity:1.;"/>
<stop offset="1" style="stop-color:#ffffff;stop-opacity:1.;"/>
</linearGradient>
</defs>
<polygon fill="url(#l_1)" stroke="#000000" points="181,-196 127,-196 127,-160 181,-160 181,-196"/>
<text text-anchor="middle" x="154" y="-175.5" font-family="Times-Roman" font-size="10.00" fill="#000000">B</text>
</g>
<!-- stash&#45;&gt;B -->
<g id="edge1" class="edge">
<title>stash&#45;&gt;B</title>
<path fill="none" stroke="#000000" d="M154,-229.8468C154,-229.8468 154,-206.0814 154,-206.0814"/>
<polygon fill="#000000" stroke="#000000" points="157.5,-206.0814 154,-196.0814 150.5,-206.0814 157.5,-206.0814"/>
<polygon fill="#000000" stroke="#000000" points="150.5,-229.8468 154,-239.8468 157.5,-229.8468 150.5,-229.8468"/>
<text text-anchor="middle" x="115.5" y="-209.9641" font-family="Times-Roman" font-size="10.00" fill="#000000">stash/stash pop</text>
</g>
<!-- C -->
<g id="node4" class="node">
<title>C</title>
<defs>
<linearGradient id="l_2" gradientUnits="userSpaceOnUse" x1="377" y1="-160" x2="377" y2="-196" >
<stop offset="0" style="stop-color:#c0c0c0;stop-opacity:1.;"/>
<stop offset="1" style="stop-color:#ffffff;stop-opacity:1.;"/>
</linearGradient>
</defs>
<polygon fill="url(#l_2)" stroke="#000000" points="404,-196 350,-196 350,-160 404,-160 404,-196"/>
<text text-anchor="middle" x="377" y="-175.5" font-family="Times-Roman" font-size="10.00" fill="#000000">C</text>
</g>
<!-- B&#45;&gt;C -->
<g id="edge4" class="edge">
<title>B&#45;&gt;C</title>
<path fill="none" stroke="#000000" d="M191.3442,-178C191.3442,-178 349.7813,-178 349.7813,-178"/>
<polygon fill="#000000" stroke="#000000" points="191.3442,-174.5001 181.3442,-178 191.3441,-181.5001 191.3442,-174.5001"/>
<text text-anchor="middle" x="265.5" y="-181" font-family="Times-Roman" font-size="10.00" fill="#000000">reset &#45;&#45;hard HEAD^</text>
</g>
<!-- work -->
<g id="node6" class="node">
<title>work</title>
<defs>
<linearGradient id="l_3" gradientUnits="userSpaceOnUse" x1="154" y1="-80" x2="154" y2="-116" >
<stop offset="0" style="stop-color:#c0c0c0;stop-opacity:1.;"/>
<stop offset="1" style="stop-color:#ffffff;stop-opacity:1.;"/>
</linearGradient>
</defs>
<polygon fill="url(#l_3)" stroke="#000000" points="181,-116 127,-116 127,-80 181,-80 181,-116"/>
<text text-anchor="middle" x="154" y="-95.5" font-family="Times-Roman" font-size="10.00" fill="#000000">work</text>
</g>
<!-- B&#45;&gt;work -->
<g id="edge5" class="edge">
<title>B&#45;&gt;work</title>
<path fill="none" stroke="#000000" d="M154,-149.8468C154,-149.8468 154,-126.0814 154,-126.0814"/>
<polygon fill="#000000" stroke="#000000" points="157.5,-126.0814 154,-116.0814 150.5,-126.0814 157.5,-126.0814"/>
<polygon fill="#000000" stroke="#000000" points="150.5,-149.8468 154,-159.8468 157.5,-149.8468 150.5,-149.8468"/>
<text text-anchor="middle" x="112.5" y="-129.9641" font-family="Times-Roman" font-size="10.00" fill="#000000">MODIFY/checkout</text>
</g>
<!-- remote -->
<g id="node3" class="node">
<title>remote</title>
<defs>
<linearGradient id="l_4" gradientUnits="userSpaceOnUse" x1="377" y1="-240" x2="377" y2="-276" >
<stop offset="0" style="stop-color:#c0c0c0;stop-opacity:1.;"/>
<stop offset="1" style="stop-color:#ffffff;stop-opacity:1.;"/>
</linearGradient>
</defs>
<polygon fill="url(#l_4)" stroke="#000000" points="404,-276 350,-276 350,-240 404,-240 404,-276"/>
<text text-anchor="middle" x="377" y="-255.5" font-family="Times-Roman" font-size="10.00" fill="#000000">remote</text>
</g>
<!-- remote&#45;&gt;C -->
<g id="edge2" class="edge">
<title>remote&#45;&gt;C</title>
<path fill="none" stroke="#000000" d="M377,-229.8468C377,-229.8468 377,-206.0814 377,-206.0814"/>
<polygon fill="#000000" stroke="#000000" points="380.5,-206.0814 377,-196.0814 373.5,-206.0814 380.5,-206.0814"/>
<polygon fill="#000000" stroke="#000000" points="373.5,-229.8468 377,-239.8468 380.5,-229.8468 373.5,-229.8468"/>
<text text-anchor="middle" x="355.5" y="-209.9641" font-family="Times-Roman" font-size="10.00" fill="#000000">push/pull</text>
</g>
<!-- C&#45;&gt;work -->
<g id="edge7" class="edge">
<title>C&#45;&gt;work</title>
<path fill="none" stroke="#000000" d="M368,-159.8468C368,-136.2434 368,-98 368,-98 368,-98 191.1032,-98 191.1032,-98"/>
<polygon fill="#000000" stroke="#000000" points="191.1033,-94.5001 181.1032,-98 191.1032,-101.5001 191.1033,-94.5001"/>
<text text-anchor="middle" x="254.475" y="-90" font-family="Times-Roman" font-size="10.00" fill="#000000">reset [&#45;&#45;mixed] HEAD^</text>
</g>
<!-- index -->
<g id="node7" class="node">
<title>index</title>
<defs>
<linearGradient id="l_5" gradientUnits="userSpaceOnUse" x1="154" y1="0" x2="154" y2="-36" >
<stop offset="0" style="stop-color:#c0c0c0;stop-opacity:1.;"/>
<stop offset="1" style="stop-color:#ffffff;stop-opacity:1.;"/>
</linearGradient>
</defs>
<polygon fill="url(#l_5)" stroke="#000000" points="181,-36 127,-36 127,0 181,0 181,-36"/>
<text text-anchor="middle" x="154" y="-15.5" font-family="Times-Roman" font-size="10.00" fill="#000000">index</text>
</g>
<!-- C&#45;&gt;index -->
<g id="edge8" class="edge">
<title>C&#45;&gt;index</title>
<path fill="none" stroke="#000000" d="M386,-149.957C386,-149.957 386,-18 386,-18 386,-18 191.0674,-18 191.0674,-18"/>
<polygon fill="#000000" stroke="#000000" points="382.5001,-149.9569 386,-159.957 389.5001,-149.957 382.5001,-149.9569"/>
<polygon fill="#000000" stroke="#000000" points="191.0674,-14.5001 181.0674,-18 191.0674,-21.5001 191.0674,-14.5001"/>
<text text-anchor="middle" x="288.0122" y="-10" font-family="Times-Roman" font-size="10.00" fill="#000000">commit/reset &#45;&#45;soft HEAD^</text>
</g>
<!-- A -->
<g id="node5" class="node">
<title>A</title>
<defs>
<linearGradient id="l_6" gradientUnits="userSpaceOnUse" x1="27" y1="-160" x2="27" y2="-196" >
<stop offset="0" style="stop-color:#c0c0c0;stop-opacity:1.;"/>
<stop offset="1" style="stop-color:#ffffff;stop-opacity:1.;"/>
</linearGradient>
</defs>
<polygon fill="url(#l_6)" stroke="#000000" points="54,-196 0,-196 0,-160 54,-160 54,-196"/>
<text text-anchor="middle" x="27" y="-175.5" font-family="Times-Roman" font-size="10.00" fill="#000000">A</text>
</g>
<!-- A&#45;&gt;B -->
<g id="edge3" class="edge">
<title>A&#45;&gt;B</title>
<path fill="none" stroke="#000000" d="M54.2447,-178C54.2447,-178 116.8004,-178 116.8004,-178"/>
<polygon fill="#000000" stroke="#000000" points="116.8004,-181.5001 126.8004,-178 116.8003,-174.5001 116.8004,-181.5001"/>
</g>
<!-- work&#45;&gt;index -->
<g id="edge6" class="edge">
<title>work&#45;&gt;index</title>
<path fill="none" stroke="#000000" d="M154,-69.8468C154,-69.8468 154,-46.0814 154,-46.0814"/>
<polygon fill="#000000" stroke="#000000" points="157.5,-46.0814 154,-36.0814 150.5,-46.0814 157.5,-46.0814"/>
<polygon fill="#000000" stroke="#000000" points="150.5,-69.8468 154,-79.8468 157.5,-69.8468 150.5,-69.8468"/>
<text text-anchor="middle" x="131" y="-49.9641" font-family="Times-Roman" font-size="10.00" fill="#000000">add/reset</text>
</g>
</g>
</svg>
