<?xml version="1.0" encoding="UTF-8" standalone="no"?>
<!DOCTYPE svg PUBLIC "-//W3C//DTD SVG 1.1//EN"
 "http://www.w3.org/Graphics/SVG/1.1/DTD/svg11.dtd">
<!-- Generated by graphviz version 2.44.1 (20211215.2258)
 -->
<!-- Title: G Pages: 1 -->
<svg width="700pt" height="204pt"
 viewBox="0.00 0.00 700.00 204.00" xmlns="http://www.w3.org/2000/svg" xmlns:xlink="http://www.w3.org/1999/xlink">
<g id="graph0" class="graph" transform="scale(1 1) rotate(0) translate(4 200)">
<title>G</title>
<polygon fill="white" stroke="transparent" points="-4,4 -4,-200 696,-200 696,4 -4,4"/>
<g id="clust1" class="cluster">
<title>cluster1</title>
<path fill="none" stroke="black" d="M125,-72C125,-72 337,-72 337,-72 343,-72 349,-78 349,-84 349,-84 349,-112 349,-112 349,-118 343,-124 337,-124 337,-124 125,-124 125,-124 119,-124 113,-118 113,-112 113,-112 113,-84 113,-84 113,-78 119,-72 125,-72"/>
</g>
<g id="clust2" class="cluster">
<title>cluster2</title>
<path fill="none" stroke="black" d="M400,-72C400,-72 611,-72 611,-72 617,-72 623,-78 623,-84 623,-84 623,-112 623,-112 623,-118 617,-124 611,-124 611,-124 400,-124 400,-124 394,-124 388,-118 388,-112 388,-112 388,-84 388,-84 388,-78 394,-72 400,-72"/>
</g>
<!-- zenkaku -->
<g id="node1" class="node">
<title>zenkaku</title>
<defs>
<linearGradient id="l_0" gradientUnits="userSpaceOnUse" x1="161" y1="0" x2="161" y2="-36" >
<stop offset="0" style="stop-color:#c0c0c0;stop-opacity:1.;"/>
<stop offset="1" style="stop-color:#ffffff;stop-opacity:1.;"/>
</linearGradient>
</defs>
<polygon fill="url(#l_0)" stroke="black" points="201,-36 121,-36 121,0 201,0 201,-36"/>
<text text-anchor="middle" x="161" y="-15.5" font-family="Times New Roman,serif" font-size="10.00">全角英数</text>
</g>
<!-- insert -->
<g id="node2" class="node">
<title>insert</title>
<defs>
<linearGradient id="l_1" gradientUnits="userSpaceOnUse" x1="27" y1="-80" x2="27" y2="-116" >
<stop offset="0" style="stop-color:#c0c0c0;stop-opacity:1.;"/>
<stop offset="1" style="stop-color:#ffffff;stop-opacity:1.;"/>
</linearGradient>
</defs>
<polygon fill="url(#l_1)" stroke="black" points="54,-116 0,-116 0,-80 54,-80 54,-116"/>
<text text-anchor="middle" x="27" y="-95.5" font-family="Times New Roman,serif" font-size="10.00">insert</text>
</g>
<!-- hira -->
<g id="node4" class="node">
<title>hira</title>
<defs>
<linearGradient id="l_2" gradientUnits="userSpaceOnUse" x1="161" y1="-80" x2="161" y2="-116" >
<stop offset="0" style="stop-color:#c0c0c0;stop-opacity:1.;"/>
<stop offset="1" style="stop-color:#ffffff;stop-opacity:1.;"/>
</linearGradient>
</defs>
<polygon fill="url(#l_2)" stroke="black" points="201,-116 121,-116 121,-80 201,-80 201,-116"/>
<text text-anchor="middle" x="161" y="-95.5" font-family="Times New Roman,serif" font-size="10.00">ひらかな</text>
</g>
<!-- insert&#45;&gt;hira -->
<g id="edge4" class="edge">
<title>insert&#45;&gt;hira</title>
<path fill="none" stroke="black" d="M64.49,-98C78.75,-98 95.32,-98 110.61,-98"/>
<polygon fill="black" stroke="black" points="64.08,-94.5 54.08,-98 64.08,-101.5 64.08,-94.5"/>
<polygon fill="black" stroke="black" points="103,-101.5 113,-98 103,-94.5 103,-101.5"/>
<text text-anchor="middle" x="87.5" y="-101" font-family="Times New Roman,serif" font-size="10.00">C&#45;j</text>
</g>
<!-- ascii -->
<g id="node3" class="node">
<title>ascii</title>
<defs>
<linearGradient id="l_3" gradientUnits="userSpaceOnUse" x1="161" y1="-160" x2="161" y2="-196" >
<stop offset="0" style="stop-color:#c0c0c0;stop-opacity:1.;"/>
<stop offset="1" style="stop-color:#ffffff;stop-opacity:1.;"/>
</linearGradient>
</defs>
<polygon fill="url(#l_3)" stroke="black" points="201,-196 121,-196 121,-160 201,-160 201,-196"/>
<text text-anchor="middle" x="161" y="-175.5" font-family="Times New Roman,serif" font-size="10.00">半角英数</text>
</g>
<!-- hira&#45;&gt;zenkaku -->
<g id="edge7" class="edge">
<title>hira&#45;&gt;zenkaku</title>
<path fill="none" stroke="black" d="M161,-69.48C161,-61.76 161,-54.04 161,-46.32"/>
<polygon fill="black" stroke="black" points="157.5,-62 161,-72 164.5,-62 157.5,-62"/>
<polygon fill="black" stroke="black" points="164.5,-46.12 161,-36.12 157.5,-46.13 164.5,-46.12"/>
<text text-anchor="middle" x="182.21" y="-54.84" font-family="Times New Roman,serif" font-size="10.00">L</text>
<text text-anchor="middle" x="139.79" y="-55.92" font-family="Times New Roman,serif" font-size="10.00">C&#45;j</text>
</g>
<!-- hira&#45;&gt;ascii -->
<g id="edge6" class="edge">
<title>hira&#45;&gt;ascii</title>
<path fill="none" stroke="black" d="M161,-126.32C161,-134.04 161,-141.76 161,-149.48"/>
<polygon fill="black" stroke="black" points="164.5,-134 161,-124 157.5,-134 164.5,-134"/>
<polygon fill="black" stroke="black" points="157.5,-149.63 161,-159.63 164.5,-149.63 157.5,-149.63"/>
<text text-anchor="middle" x="139.79" y="-135.92" font-family="Times New Roman,serif" font-size="10.00">l</text>
<text text-anchor="middle" x="182.21" y="-134.84" font-family="Times New Roman,serif" font-size="10.00">C&#45;j</text>
</g>
<!-- kata -->
<g id="node5" class="node">
<title>kata</title>
<defs>
<linearGradient id="l_4" gradientUnits="userSpaceOnUse" x1="301" y1="-80" x2="301" y2="-116" >
<stop offset="0" style="stop-color:#c0c0c0;stop-opacity:1.;"/>
<stop offset="1" style="stop-color:#ffffff;stop-opacity:1.;"/>
</linearGradient>
</defs>
<polygon fill="url(#l_4)" stroke="black" points="341,-116 261,-116 261,-80 341,-80 341,-116"/>
<text text-anchor="middle" x="301" y="-95.5" font-family="Times New Roman,serif" font-size="10.00">カタカナ</text>
</g>
<!-- hira&#45;&gt;kata -->
<g id="edge1" class="edge">
<title>hira&#45;&gt;kata</title>
<path fill="none" stroke="black" d="M211.53,-98C224.16,-98 237.74,-98 250.38,-98"/>
<polygon fill="black" stroke="black" points="211.18,-94.5 201.18,-98 211.18,-101.5 211.18,-94.5"/>
<polygon fill="black" stroke="black" points="250.73,-101.5 260.73,-98 250.73,-94.5 250.73,-101.5"/>
<text text-anchor="middle" x="231" y="-101" font-family="Times New Roman,serif" font-size="10.00">q</text>
</g>
<!-- roman -->
<g id="node6" class="node">
<title>roman</title>
<defs>
<linearGradient id="l_5" gradientUnits="userSpaceOnUse" x1="436" y1="-80" x2="436" y2="-116" >
<stop offset="0" style="stop-color:#c0c0c0;stop-opacity:1.;"/>
<stop offset="1" style="stop-color:#ffffff;stop-opacity:1.;"/>
</linearGradient>
</defs>
<polygon fill="url(#l_5)" stroke="black" points="476,-116 396,-116 396,-80 476,-80 476,-116"/>
<text text-anchor="middle" x="436" y="-95.5" font-family="Times New Roman,serif" font-size="10.00">ローマ字</text>
</g>
<!-- kata&#45;&gt;roman -->
<g id="edge5" class="edge">
<title>kata&#45;&gt;roman</title>
<path fill="none" stroke="black" d="M351.53,-98C362.56,-98 374.26,-98 385.3,-98"/>
<polygon fill="black" stroke="black" points="359,-94.5 349,-98 359,-101.5 359,-94.5"/>
<polygon fill="black" stroke="black" points="378,-101.5 388,-98 378,-94.5 378,-101.5"/>
<text text-anchor="middle" x="374.42" y="-116.71" font-family="Times New Roman,serif" font-size="10.00">大文字</text>
<text text-anchor="middle" x="362.4" y="-74.29" font-family="Times New Roman,serif" font-size="10.00">C&#45;g</text>
</g>
<!-- kanji -->
<g id="node7" class="node">
<title>kanji</title>
<defs>
<linearGradient id="l_6" gradientUnits="userSpaceOnUse" x1="588" y1="-80" x2="588" y2="-116" >
<stop offset="0" style="stop-color:#c0c0c0;stop-opacity:1.;"/>
<stop offset="1" style="stop-color:#ffffff;stop-opacity:1.;"/>
</linearGradient>
</defs>
<polygon fill="url(#l_6)" stroke="black" points="615,-116 561,-116 561,-80 615,-80 615,-116"/>
<text text-anchor="middle" x="588" y="-95.5" font-family="Times New Roman,serif" font-size="10.00">漢字</text>
</g>
<!-- roman&#45;&gt;kanji -->
<g id="edge2" class="edge">
<title>roman&#45;&gt;kanji</title>
<path fill="none" stroke="black" d="M476.02,-98C499.1,-98 528.14,-98 550.72,-98"/>
<polygon fill="black" stroke="black" points="550.92,-101.5 560.92,-98 550.92,-94.5 550.92,-101.5"/>
<text text-anchor="middle" x="518.5" y="-101" font-family="Times New Roman,serif" font-size="10.00">SPACE</text>
</g>
<!-- kanji&#45;&gt;kanji -->
<g id="edge3" class="edge">
<title>kanji:e&#45;&gt;kanji:e</title>
<path fill="none" stroke="black" d="M623.37,-103.49C634.89,-108.51 649,-106.68 649,-98 649,-89.32 634.89,-87.49 623.37,-92.51"/>
<polygon fill="black" stroke="black" points="625.28,-100.56 615,-98 621.44,-106.41 625.28,-100.56"/>
<polygon fill="black" stroke="black" points="621.44,-89.59 615,-98 625.28,-95.44 621.44,-89.59"/>
<text text-anchor="middle" x="670.5" y="-95.5" font-family="Times New Roman,serif" font-size="10.00">SPACE / x</text>
</g>
</g>
</svg>
