<?xml version="1.0" encoding="UTF-8" standalone="no"?>
<!DOCTYPE svg PUBLIC "-//W3C//DTD SVG 1.1//EN"
 "http://www.w3.org/Graphics/SVG/1.1/DTD/svg11.dtd">
<!-- Generated by graphviz version 2.40.1 (20161225.0304)
 -->
<!-- Title: G Pages: 1 -->
<svg width="645pt" height="204pt"
 viewBox="0.00 0.00 645.00 204.00" xmlns="http://www.w3.org/2000/svg" xmlns:xlink="http://www.w3.org/1999/xlink">
<g id="graph0" class="graph" transform="scale(1 1) rotate(0) translate(4 200)">
<title>G</title>
<polygon fill="#ffffff" stroke="transparent" points="-4,4 -4,-200 641,-200 641,4 -4,4"/>
<g id="clust2" class="cluster">
<title>cluster2</title>
<path fill="none" stroke="#000000" d="M359,-72C359,-72 551,-72 551,-72 557,-72 563,-78 563,-84 563,-84 563,-112 563,-112 563,-118 557,-124 551,-124 551,-124 359,-124 359,-124 353,-124 347,-118 347,-112 347,-112 347,-84 347,-84 347,-78 353,-72 359,-72"/>
</g>
<g id="clust1" class="cluster">
<title>cluster1</title>
<path fill="none" stroke="#000000" d="M125,-72C125,-72 296,-72 296,-72 302,-72 308,-78 308,-84 308,-84 308,-112 308,-112 308,-118 302,-124 296,-124 296,-124 125,-124 125,-124 119,-124 113,-118 113,-112 113,-112 113,-84 113,-84 113,-78 119,-72 125,-72"/>
</g>
<!-- zenkaku -->
<g id="node1" class="node">
<title>zenkaku</title>
<defs>
<linearGradient id="l_0" gradientUnits="userSpaceOnUse" x1="150.5" y1="0" x2="150.5" y2="-36" >
<stop offset="0" style="stop-color:#c0c0c0;stop-opacity:1.;"/>
<stop offset="1" style="stop-color:#ffffff;stop-opacity:1.;"/>
</linearGradient>
</defs>
<polygon fill="url(#l_0)" stroke="#000000" points="180,-36 121,-36 121,0 180,0 180,-36"/>
<text text-anchor="middle" x="150.5" y="-15.5" font-family="Times-Roman" font-size="10.00" fill="#000000">全角英数</text>
</g>
<!-- insert -->
<g id="node2" class="node">
<title>insert</title>
<defs>
<linearGradient id="l_1" gradientUnits="userSpaceOnUse" x1="27" y1="-80" x2="27" y2="-116" >
<stop offset="0" style="stop-color:#c0c0c0;stop-opacity:1.;"/>
<stop offset="1" style="stop-color:#ffffff;stop-opacity:1.;"/>
</linearGradient>
</defs>
<polygon fill="url(#l_1)" stroke="#000000" points="54,-116 0,-116 0,-80 54,-80 54,-116"/>
<text text-anchor="middle" x="27" y="-95.5" font-family="Times-Roman" font-size="10.00" fill="#000000">insert</text>
</g>
<!-- hira -->
<g id="node4" class="node">
<title>hira</title>
<defs>
<linearGradient id="l_2" gradientUnits="userSpaceOnUse" x1="150.5" y1="-80" x2="150.5" y2="-116" >
<stop offset="0" style="stop-color:#c0c0c0;stop-opacity:1.;"/>
<stop offset="1" style="stop-color:#ffffff;stop-opacity:1.;"/>
</linearGradient>
</defs>
<polygon fill="url(#l_2)" stroke="#000000" points="180,-116 121,-116 121,-80 180,-80 180,-116"/>
<text text-anchor="middle" x="150.5" y="-95.5" font-family="Times-Roman" font-size="10.00" fill="#000000">ひらかな</text>
</g>
<!-- insert&#45;&gt;hira -->
<g id="edge4" class="edge">
<title>insert&#45;&gt;hira</title>
<path fill="none" stroke="#000000" d="M64.3228,-98C78.8995,-98 95.6413,-98 110.4685,-98"/>
<polygon fill="#000000" stroke="#000000" points="64.1026,-94.5001 54.1026,-98 64.1026,-101.5001 64.1026,-94.5001"/>
<polygon fill="#000000" stroke="#000000" points="103.0001,-101.5004 113,-98 102.9999,-94.5004 103.0001,-101.5004"/>
<text text-anchor="middle" x="87.5" y="-101" font-family="Times-Roman" font-size="10.00" fill="#000000">C&#45;j</text>
</g>
<!-- ascii -->
<g id="node3" class="node">
<title>ascii</title>
<defs>
<linearGradient id="l_3" gradientUnits="userSpaceOnUse" x1="150.5" y1="-160" x2="150.5" y2="-196" >
<stop offset="0" style="stop-color:#c0c0c0;stop-opacity:1.;"/>
<stop offset="1" style="stop-color:#ffffff;stop-opacity:1.;"/>
</linearGradient>
</defs>
<polygon fill="url(#l_3)" stroke="#000000" points="180,-196 121,-196 121,-160 180,-160 180,-196"/>
<text text-anchor="middle" x="150.5" y="-175.5" font-family="Times-Roman" font-size="10.00" fill="#000000">半角英数</text>
</g>
<!-- hira&#45;&gt;zenkaku -->
<g id="edge7" class="edge">
<title>hira&#45;&gt;zenkaku</title>
<path fill="none" stroke="#000000" d="M150.5,-69.482C150.5,-61.7619 150.5,-54.0418 150.5,-46.3217"/>
<polygon fill="#000000" stroke="#000000" points="147.0004,-61.9999 150.5,-72 154.0004,-62.0001 147.0004,-61.9999"/>
<polygon fill="#000000" stroke="#000000" points="154.0001,-46.125 150.5,-36.125 147.0001,-46.125 154.0001,-46.125"/>
<text text-anchor="middle" x="171.7132" y="-54.8382" font-family="Times-Roman" font-size="10.00" fill="#000000">L</text>
<text text-anchor="middle" x="129.2868" y="-55.9177" font-family="Times-Roman" font-size="10.00" fill="#000000">C&#45;j</text>
</g>
<!-- hira&#45;&gt;ascii -->
<g id="edge6" class="edge">
<title>hira&#45;&gt;ascii</title>
<path fill="none" stroke="#000000" d="M150.5,-126.3217C150.5,-134.0418 150.5,-141.7619 150.5,-149.482"/>
<polygon fill="#000000" stroke="#000000" points="154.0004,-133.9998 150.5,-124 147.0004,-134.0002 154.0004,-133.9998"/>
<polygon fill="#000000" stroke="#000000" points="147.0001,-149.6308 150.5,-159.6309 154.0001,-149.6309 147.0001,-149.6308"/>
<text text-anchor="middle" x="129.2868" y="-135.9177" font-family="Times-Roman" font-size="10.00" fill="#000000">l</text>
<text text-anchor="middle" x="171.7132" y="-134.8382" font-family="Times-Roman" font-size="10.00" fill="#000000">C&#45;j</text>
</g>
<!-- kata -->
<g id="node5" class="node">
<title>kata</title>
<defs>
<linearGradient id="l_4" gradientUnits="userSpaceOnUse" x1="270.5" y1="-80" x2="270.5" y2="-116" >
<stop offset="0" style="stop-color:#c0c0c0;stop-opacity:1.;"/>
<stop offset="1" style="stop-color:#ffffff;stop-opacity:1.;"/>
</linearGradient>
</defs>
<polygon fill="url(#l_4)" stroke="#000000" points="300,-116 241,-116 241,-80 300,-80 300,-116"/>
<text text-anchor="middle" x="270.5" y="-95.5" font-family="Times-Roman" font-size="10.00" fill="#000000">カタカナ</text>
</g>
<!-- hira&#45;&gt;kata -->
<g id="edge1" class="edge">
<title>hira&#45;&gt;kata</title>
<path fill="none" stroke="#000000" d="M190.5584,-98C203.5009,-98 217.8402,-98 230.7596,-98"/>
<polygon fill="#000000" stroke="#000000" points="190.163,-94.5001 180.1629,-98 190.1629,-101.5001 190.163,-94.5001"/>
<polygon fill="#000000" stroke="#000000" points="230.7625,-101.5001 240.7624,-98 230.7624,-94.5001 230.7625,-101.5001"/>
<text text-anchor="middle" x="210.5" y="-101" font-family="Times-Roman" font-size="10.00" fill="#000000">q</text>
</g>
<!-- roman -->
<g id="node6" class="node">
<title>roman</title>
<defs>
<linearGradient id="l_5" gradientUnits="userSpaceOnUse" x1="384.5" y1="-80" x2="384.5" y2="-116" >
<stop offset="0" style="stop-color:#c0c0c0;stop-opacity:1.;"/>
<stop offset="1" style="stop-color:#ffffff;stop-opacity:1.;"/>
</linearGradient>
</defs>
<polygon fill="url(#l_5)" stroke="#000000" points="414,-116 355,-116 355,-80 414,-80 414,-116"/>
<text text-anchor="middle" x="384.5" y="-95.5" font-family="Times-Roman" font-size="10.00" fill="#000000">ローマ字</text>
</g>
<!-- kata&#45;&gt;roman -->
<g id="edge5" class="edge">
<title>kata&#45;&gt;roman</title>
<path fill="none" stroke="#000000" d="M310.468,-98C321.5709,-98 333.6231,-98 344.7154,-98"/>
<polygon fill="#000000" stroke="#000000" points="318.0001,-94.5004 308,-98 317.9999,-101.5004 318.0001,-94.5004"/>
<polygon fill="#000000" stroke="#000000" points="337.0002,-101.5004 347,-98 336.9998,-94.5004 337.0002,-101.5004"/>
<text text-anchor="middle" x="333.7807" y="-116.7132" font-family="Times-Roman" font-size="10.00" fill="#000000">大文字</text>
<text text-anchor="middle" x="321.3678" y="-74.2868" font-family="Times-Roman" font-size="10.00" fill="#000000">C&#45;g</text>
</g>
<!-- kanji -->
<g id="node7" class="node">
<title>kanji</title>
<defs>
<linearGradient id="l_6" gradientUnits="userSpaceOnUse" x1="528" y1="-80" x2="528" y2="-116" >
<stop offset="0" style="stop-color:#c0c0c0;stop-opacity:1.;"/>
<stop offset="1" style="stop-color:#ffffff;stop-opacity:1.;"/>
</linearGradient>
</defs>
<polygon fill="url(#l_6)" stroke="#000000" points="555,-116 501,-116 501,-80 555,-80 555,-116"/>
<text text-anchor="middle" x="528" y="-95.5" font-family="Times-Roman" font-size="10.00" fill="#000000">漢字</text>
</g>
<!-- roman&#45;&gt;kanji -->
<g id="edge2" class="edge">
<title>roman&#45;&gt;kanji</title>
<path fill="none" stroke="#000000" d="M414.2333,-98C436.4018,-98 466.8328,-98 490.644,-98"/>
<polygon fill="#000000" stroke="#000000" points="490.7318,-101.5001 500.7318,-98 490.7317,-94.5001 490.7318,-101.5001"/>
<text text-anchor="middle" x="457.5" y="-101" font-family="Times-Roman" font-size="10.00" fill="#000000">SPACE</text>
</g>
<!-- kanji&#45;&gt;kanji -->
<g id="edge3" class="edge">
<title>kanji:e&#45;&gt;kanji:e</title>
<path fill="none" stroke="#000000" d="M563.6116,-103.4926C575.4722,-108.5106 590,-106.6797 590,-98 590,-89.3203 575.4722,-87.4894 563.6116,-92.5074"/>
<polygon fill="#000000" stroke="#000000" points="565.3132,-100.4266 555,-98 561.549,-106.3284 565.3132,-100.4266"/>
<polygon fill="#000000" stroke="#000000" points="561.549,-89.6716 555,-98 565.3132,-95.5734 561.549,-89.6716"/>
<text text-anchor="middle" x="613.5" y="-95.5" font-family="Times-Roman" font-size="10.00" fill="#000000">SPACE / x</text>
</g>
</g>
</svg>
