<?xml version="1.0" encoding="UTF-8" standalone="no"?>
<!DOCTYPE svg PUBLIC "-//W3C//DTD SVG 1.1//EN"
 "http://www.w3.org/Graphics/SVG/1.1/DTD/svg11.dtd">
<!-- Generated by graphviz version 2.44.1 (20211215.2258)
 -->
<!-- Title: G Pages: 1 -->
<svg width="314pt" height="218pt"
 viewBox="0.00 0.00 314.00 218.00" xmlns="http://www.w3.org/2000/svg" xmlns:xlink="http://www.w3.org/1999/xlink">
<g id="graph0" class="graph" transform="scale(1 1) rotate(0) translate(4 214)">
<title>G</title>
<polygon fill="white" stroke="transparent" points="-4,4 -4,-214 310,-214 310,4 -4,4"/>
<!-- fern -->
<g id="node1" class="node">
<title>fern</title>
<defs>
<linearGradient id="l_0" gradientUnits="userSpaceOnUse" x1="27" y1="-116" x2="27" y2="-152" >
<stop offset="0" style="stop-color:#c0c0c0;stop-opacity:1.;"/>
<stop offset="1" style="stop-color:#ffffff;stop-opacity:1.;"/>
</linearGradient>
</defs>
<polygon fill="url(#l_0)" stroke="black" points="54,-152 0,-152 0,-116 54,-116 54,-152"/>
<text text-anchor="middle" x="27" y="-131.5" font-family="Times New Roman,serif" font-size="10.00">Fern</text>
</g>
<!-- edit -->
<g id="node2" class="node">
<title>edit</title>
<defs>
<linearGradient id="l_1" gradientUnits="userSpaceOnUse" x1="153" y1="-116" x2="153" y2="-152" >
<stop offset="0" style="stop-color:#c0c0c0;stop-opacity:1.;"/>
<stop offset="1" style="stop-color:#ffffff;stop-opacity:1.;"/>
</linearGradient>
</defs>
<polygon fill="url(#l_1)" stroke="black" points="180,-152 126,-152 126,-116 180,-116 180,-152"/>
<text text-anchor="middle" x="153" y="-131.5" font-family="Times New Roman,serif" font-size="10.00">Editor</text>
</g>
<!-- fern&#45;&gt;edit -->
<g id="edge1" class="edge">
<title>fern&#45;&gt;edit</title>
<path fill="none" stroke="black" d="M64.03,-134C64.03,-134 115.58,-134 115.58,-134"/>
<polygon fill="black" stroke="black" points="115.58,-137.5 125.58,-134 115.58,-130.5 115.58,-137.5"/>
<polygon fill="black" stroke="black" points="64.03,-130.5 54.03,-134 64.03,-137.5 64.03,-130.5"/>
<text text-anchor="middle" x="64.03" y="-114.18" font-family="Times New Roman,serif" font-size="10.00">MyFernDrawer</text>
<text text-anchor="middle" x="115.58" y="-148.82" font-family="Times New Roman,serif" font-size="10.00">l, [2&#45;9]</text>
</g>
<!-- term -->
<g id="node3" class="node">
<title>term</title>
<defs>
<linearGradient id="l_2" gradientUnits="userSpaceOnUse" x1="153" y1="-58" x2="153" y2="-94" >
<stop offset="0" style="stop-color:#c0c0c0;stop-opacity:1.;"/>
<stop offset="1" style="stop-color:#ffffff;stop-opacity:1.;"/>
</linearGradient>
</defs>
<polygon fill="url(#l_2)" stroke="black" points="180,-94 126,-94 126,-58 180,-58 180,-94"/>
<text text-anchor="middle" x="153" y="-73.5" font-family="Times New Roman,serif" font-size="10.00">Term</text>
</g>
<!-- edit&#45;&gt;term -->
<g id="edge2" class="edge">
<title>edit&#45;&gt;term</title>
<path fill="none" stroke="black" d="M153,-105.97C153,-105.97 153,-104.22 153,-104.22"/>
<polygon fill="black" stroke="black" points="156.5,-104.22 153,-94.22 149.5,-104.22 156.5,-104.22"/>
<polygon fill="black" stroke="black" points="149.5,-105.97 153,-115.97 156.5,-105.97 149.5,-105.97"/>
<text text-anchor="middle" x="135.68" y="-103.47" font-family="Times New Roman,serif" font-size="10.00">,e</text>
<text text-anchor="middle" x="170.32" y="-101.72" font-family="Times New Roman,serif" font-size="10.00">C&#45;s</text>
</g>
<!-- tagbar -->
<g id="node4" class="node">
<title>tagbar</title>
<defs>
<linearGradient id="l_3" gradientUnits="userSpaceOnUse" x1="279" y1="-116" x2="279" y2="-152" >
<stop offset="0" style="stop-color:#c0c0c0;stop-opacity:1.;"/>
<stop offset="1" style="stop-color:#ffffff;stop-opacity:1.;"/>
</linearGradient>
</defs>
<polygon fill="url(#l_3)" stroke="black" points="306,-152 252,-152 252,-116 306,-116 306,-152"/>
<text text-anchor="middle" x="279" y="-131.5" font-family="Times New Roman,serif" font-size="10.00">Tagbar</text>
</g>
<!-- edit&#45;&gt;tagbar -->
<g id="edge4" class="edge">
<title>edit&#45;&gt;tagbar</title>
<path fill="none" stroke="black" d="M190.03,-134C190.03,-134 241.58,-134 241.58,-134"/>
<polygon fill="black" stroke="black" points="241.58,-137.5 251.58,-134 241.58,-130.5 241.58,-137.5"/>
<polygon fill="black" stroke="black" points="190.03,-130.5 180.03,-134 190.03,-137.5 190.03,-130.5"/>
<text text-anchor="middle" x="241.58" y="-148.82" font-family="Times New Roman,serif" font-size="10.00">MyTagbarToggle</text>
</g>
<!-- term&#45;&gt;fern -->
<g id="edge3" class="edge">
<title>term&#45;&gt;fern</title>
<path fill="none" stroke="black" d="M115.97,-76C115.97,-76 27,-76 27,-76 27,-76 27,-105.97 27,-105.97"/>
<polygon fill="black" stroke="black" points="115.97,-79.5 125.97,-76 115.97,-72.5 115.97,-79.5"/>
<polygon fill="black" stroke="black" points="23.5,-105.97 27,-115.97 30.5,-105.97 23.5,-105.97"/>
<text text-anchor="middle" x="9.68" y="-103.47" font-family="Times New Roman,serif" font-size="10.00">D</text>
<text text-anchor="middle" x="115.97" y="-90.82" font-family="Times New Roman,serif" font-size="10.00">[2&#45;9]</text>
</g>
<!-- tab -->
<g id="node6" class="node">
<title>tab</title>
<defs>
<linearGradient id="l_4" gradientUnits="userSpaceOnUse" x1="153" y1="0" x2="153" y2="-36" >
<stop offset="0" style="stop-color:#c0c0c0;stop-opacity:1.;"/>
<stop offset="1" style="stop-color:#ffffff;stop-opacity:1.;"/>
</linearGradient>
</defs>
<polygon fill="url(#l_4)" stroke="black" points="180,-36 126,-36 126,0 180,0 180,-36"/>
<text text-anchor="middle" x="153" y="-15.5" font-family="Times New Roman,serif" font-size="10.00">Tab</text>
</g>
<!-- term&#45;&gt;tab -->
<g id="edge6" class="edge">
<title>term&#45;&gt;tab</title>
<path fill="none" stroke="black" d="M153,-47.97C153,-47.97 153,-46.22 153,-46.22"/>
<polygon fill="black" stroke="black" points="156.5,-46.22 153,-36.22 149.5,-46.22 156.5,-46.22"/>
<polygon fill="black" stroke="black" points="149.5,-47.97 153,-57.97 156.5,-47.97 149.5,-47.97"/>
<text text-anchor="middle" x="170.32" y="-43.72" font-family="Times New Roman,serif" font-size="10.00">Ins, Del, PgU, S&#45;PgU</text>
</g>
<!-- ext -->
<g id="node5" class="node">
<title>ext</title>
<defs>
<linearGradient id="l_5" gradientUnits="userSpaceOnUse" x1="153" y1="-174" x2="153" y2="-210" >
<stop offset="0" style="stop-color:#c0c0c0;stop-opacity:1.;"/>
<stop offset="1" style="stop-color:#ffffff;stop-opacity:1.;"/>
</linearGradient>
</defs>
<polygon fill="url(#l_5)" stroke="black" points="180,-210 126,-210 126,-174 180,-174 180,-210"/>
<text text-anchor="middle" x="153" y="-189.5" font-family="Times New Roman,serif" font-size="10.00">External</text>
</g>
<!-- ext&#45;&gt;edit -->
<g id="edge5" class="edge">
<title>ext&#45;&gt;edit</title>
<path fill="none" stroke="black" d="M153,-163.97C153,-163.97 153,-152.22 153,-152.22"/>
<polygon fill="black" stroke="black" points="149.5,-163.97 153,-173.97 156.5,-163.97 149.5,-163.97"/>
<text text-anchor="middle" x="135.68" y="-161.47" font-family="Times New Roman,serif" font-size="10.00">C&#45;CR, S&#45;CR</text>
</g>
</g>
</svg>
